<?xml version='1.0' encoding='UTF-8' standalone='no'?>
<svg xmlns:xlink="http://www.w3.org/1999/xlink" width="675pt" height="450pt" xmlns="http://www.w3.org/2000/svg" viewBox="0 0 675 450">
 <title>Figure 1</title>
 <desc>
Creator: GL2PS 1.4.2, (C) 1999-2020 C. Geuzaine
For: Octave
CreationDate: Wed Jun 18 18:08:57 2025
</desc>
 <defs/>
 <polygon fill="#ffffff" points="0,0 675,0 675,450 0,450"/>
 <g>
  <polygon fill="#ffffff" shape-rendering="crispEdges" points="0,450 675,450 675,0 0,0"/>
  <clipPath id="cp00675450">
   <polygon points="0,450 675,450 675,0 0,0"/>
  </clipPath>
  <g clip-path="url(#cp00675450)">
   <polygon fill="#ffffff" shape-rendering="crispEdges" points="87.7884,188.71 611.142,188.71 611.142,37.7647 87.7884,37.7647"/>
   <polyline stroke-linecap="butt" stroke="#262626" stroke-opacity="0.15" fill="none" stroke-width="0.5" points="87.7884,188.71 87.7884,37.7647" stroke-linejoin="miter" stroke-dasharray="16,0"/>
   <polyline stroke-linecap="butt" stroke="#262626" stroke-opacity="0.15" fill="none" stroke-width="0.5" points="175.014,188.71 175.014,37.7647" stroke-linejoin="miter" stroke-dasharray="16,0"/>
   <polyline stroke-linecap="butt" stroke="#262626" stroke-opacity="0.15" fill="none" stroke-width="0.5" points="262.24,188.71 262.24,37.7647" stroke-linejoin="miter" stroke-dasharray="16,0"/>
   <polyline stroke-linecap="butt" stroke="#262626" stroke-opacity="0.15" fill="none" stroke-width="0.5" points="349.465,188.71 349.465,37.7647" stroke-linejoin="miter" stroke-dasharray="16,0"/>
   <polyline stroke-linecap="butt" stroke="#262626" stroke-opacity="0.15" fill="none" stroke-width="0.5" points="436.691,188.71 436.691,37.7647" stroke-linejoin="miter" stroke-dasharray="16,0"/>
   <polyline stroke-linecap="butt" stroke="#262626" stroke-opacity="0.15" fill="none" stroke-width="0.5" points="523.917,188.71 523.917,37.7647" stroke-linejoin="miter" stroke-dasharray="16,0"/>
   <polyline stroke-linecap="butt" stroke="#262626" stroke-opacity="0.15" fill="none" stroke-width="0.5" points="611.142,188.71 611.142,37.7647" stroke-linejoin="miter" stroke-dasharray="16,0"/>
   <polyline stroke-linecap="butt" stroke="#262626" fill="none" stroke-width="0.5" points="87.7884,188.71 87.7884,183.478" stroke-linejoin="miter"/>
   <polyline stroke-linecap="butt" stroke="#262626" fill="none" stroke-width="0.5" points="87.7884,37.7647 87.7884,42.9964" stroke-linejoin="miter"/>
   <polyline stroke-linecap="butt" stroke="#262626" fill="none" stroke-width="0.5" points="175.014,188.71 175.014,183.478" stroke-linejoin="miter"/>
   <polyline stroke-linecap="butt" stroke="#262626" fill="none" stroke-width="0.5" points="175.014,37.7647 175.014,42.9964" stroke-linejoin="miter"/>
   <polyline stroke-linecap="butt" stroke="#262626" fill="none" stroke-width="0.5" points="262.24,188.71 262.24,183.478" stroke-linejoin="miter"/>
   <polyline stroke-linecap="butt" stroke="#262626" fill="none" stroke-width="0.5" points="262.24,37.7647 262.24,42.9964" stroke-linejoin="miter"/>
   <polyline stroke-linecap="butt" stroke="#262626" fill="none" stroke-width="0.5" points="349.465,188.71 349.465,183.478" stroke-linejoin="miter"/>
   <polyline stroke-linecap="butt" stroke="#262626" fill="none" stroke-width="0.5" points="349.465,37.7647 349.465,42.9964" stroke-linejoin="miter"/>
   <polyline stroke-linecap="butt" stroke="#262626" fill="none" stroke-width="0.5" points="436.691,188.71 436.691,183.478" stroke-linejoin="miter"/>
   <polyline stroke-linecap="butt" stroke="#262626" fill="none" stroke-width="0.5" points="436.691,37.7647 436.691,42.9964" stroke-linejoin="miter"/>
   <polyline stroke-linecap="butt" stroke="#262626" fill="none" stroke-width="0.5" points="523.917,188.71 523.917,183.478" stroke-linejoin="miter"/>
   <polyline stroke-linecap="butt" stroke="#262626" fill="none" stroke-width="0.5" points="523.917,37.7647 523.917,42.9964" stroke-linejoin="miter"/>
   <polyline stroke-linecap="butt" stroke="#262626" fill="none" stroke-width="0.5" points="611.142,188.71 611.142,183.478" stroke-linejoin="miter"/>
   <polyline stroke-linecap="butt" stroke="#262626" fill="none" stroke-width="0.5" points="611.142,37.7647 611.142,42.9964" stroke-linejoin="miter"/>
   <g font-style="normal" font-size="16" xml:space="preserve" transform="translate(83.2884,213.706) rotate(-0,4.5,-13)" font-family="FreeSans" font-weight="bold">
    <text x="0 " fill="rgb(38,38,38)" y="-0">0</text>
   </g>
   <g font-style="normal" font-size="16" xml:space="preserve" transform="translate(170.514,213.706) rotate(-0,4.5,-13)" font-family="FreeSans" font-weight="bold">
    <text x="0 " fill="rgb(38,38,38)" y="-0">2</text>
   </g>
   <g font-style="normal" font-size="16" xml:space="preserve" transform="translate(257.74,213.706) rotate(-0,4.5,-13)" font-family="FreeSans" font-weight="bold">
    <text x="0 " fill="rgb(38,38,38)" y="-0">4</text>
   </g>
   <g font-style="normal" font-size="16" xml:space="preserve" transform="translate(344.965,213.706) rotate(-0,4.5,-13)" font-family="FreeSans" font-weight="bold">
    <text x="0 " fill="rgb(38,38,38)" y="-0">6</text>
   </g>
   <g font-style="normal" font-size="16" xml:space="preserve" transform="translate(432.191,213.706) rotate(-0,4.5,-13)" font-family="FreeSans" font-weight="bold">
    <text x="0 " fill="rgb(38,38,38)" y="-0">8</text>
   </g>
   <g font-style="normal" font-size="16" xml:space="preserve" transform="translate(514.916,213.706) rotate(-0,9,-13)" font-family="FreeSans" font-weight="bold">
    <text x="0 9 " fill="rgb(38,38,38)" y="-0">10</text>
   </g>
   <g font-style="normal" font-size="16" xml:space="preserve" transform="translate(602.142,213.706) rotate(-0,9,-13)" font-family="FreeSans" font-weight="bold">
    <text x="0 9 " fill="rgb(38,38,38)" y="-0">12</text>
   </g>
   <polyline stroke-linecap="butt" stroke="#262626" stroke-opacity="0.15" fill="none" stroke-width="0.5" points="87.7884,171.938 611.142,171.938" stroke-linejoin="miter" stroke-dasharray="16,0"/>
   <polyline stroke-linecap="butt" stroke="#262626" stroke-opacity="0.15" fill="none" stroke-width="0.5" points="87.7884,138.395 611.142,138.395" stroke-linejoin="miter" stroke-dasharray="16,0"/>
   <polyline stroke-linecap="butt" stroke="#262626" stroke-opacity="0.15" fill="none" stroke-width="0.5" points="87.7884,104.852 611.142,104.852" stroke-linejoin="miter" stroke-dasharray="16,0"/>
   <polyline stroke-linecap="butt" stroke="#262626" stroke-opacity="0.15" fill="none" stroke-width="0.5" points="87.7884,71.3082 611.142,71.3082" stroke-linejoin="miter" stroke-dasharray="16,0"/>
   <polyline stroke-linecap="butt" stroke="#262626" stroke-opacity="0.15" fill="none" stroke-width="0.5" points="87.7884,37.7647 611.142,37.7647" stroke-linejoin="miter" stroke-dasharray="16,0"/>
   <polyline stroke-linecap="butt" stroke="#262626" fill="none" stroke-width="0.5" points="87.7884,171.938 93.0255,171.938" stroke-linejoin="miter"/>
   <polyline stroke-linecap="butt" stroke="#262626" fill="none" stroke-width="0.5" points="611.142,171.938 605.905,171.938" stroke-linejoin="miter"/>
   <polyline stroke-linecap="butt" stroke="#262626" fill="none" stroke-width="0.5" points="87.7884,138.395 93.0255,138.395" stroke-linejoin="miter"/>
   <polyline stroke-linecap="butt" stroke="#262626" fill="none" stroke-width="0.5" points="611.142,138.395 605.905,138.395" stroke-linejoin="miter"/>
   <polyline stroke-linecap="butt" stroke="#262626" fill="none" stroke-width="0.5" points="87.7884,104.852 93.0255,104.852" stroke-linejoin="miter"/>
   <polyline stroke-linecap="butt" stroke="#262626" fill="none" stroke-width="0.5" points="611.142,104.852 605.905,104.852" stroke-linejoin="miter"/>
   <polyline stroke-linecap="butt" stroke="#262626" fill="none" stroke-width="0.5" points="87.7884,71.3082 93.0255,71.3082" stroke-linejoin="miter"/>
   <polyline stroke-linecap="butt" stroke="#262626" fill="none" stroke-width="0.5" points="611.142,71.3082 605.905,71.3082" stroke-linejoin="miter"/>
   <polyline stroke-linecap="butt" stroke="#262626" fill="none" stroke-width="0.5" points="87.7884,37.7647 93.0255,37.7647" stroke-linejoin="miter"/>
   <polyline stroke-linecap="butt" stroke="#262626" fill="none" stroke-width="0.5" points="611.142,37.7647 605.905,37.7647" stroke-linejoin="miter"/>
   <g font-style="normal" font-size="16" xml:space="preserve" transform="translate(70.783,178.438) rotate(-0,9,-6.5)" font-family="FreeSans" font-weight="bold">
    <text x="0 " fill="rgb(38,38,38)" y="-0">0</text>
   </g>
   <g font-style="normal" font-size="16" xml:space="preserve" transform="translate(61.783,144.895) rotate(-0,18,-6.5)" font-family="FreeSans" font-weight="bold">
    <text x="0 9 " fill="rgb(38,38,38)" y="-0">20</text>
   </g>
   <g font-style="normal" font-size="16" xml:space="preserve" transform="translate(61.783,111.352) rotate(-0,18,-6.5)" font-family="FreeSans" font-weight="bold">
    <text x="0 9 " fill="rgb(38,38,38)" y="-0">40</text>
   </g>
   <g font-style="normal" font-size="16" xml:space="preserve" transform="translate(61.783,77.8082) rotate(-0,18,-6.5)" font-family="FreeSans" font-weight="bold">
    <text x="0 9 " fill="rgb(38,38,38)" y="-0">60</text>
   </g>
   <g font-style="normal" font-size="16" xml:space="preserve" transform="translate(61.783,44.2648) rotate(-0,18,-6.5)" font-family="FreeSans" font-weight="bold">
    <text x="0 9 " fill="rgb(38,38,38)" y="-0">80</text>
   </g>
   <polyline stroke-linecap="square" stroke="#262626" fill="none" stroke-width="0.5" points="87.7884,188.71 611.142,188.71" stroke-linejoin="miter" stroke-dasharray="16,0"/>
   <polyline stroke-linecap="square" stroke="#262626" fill="none" stroke-width="0.5" points="87.7884,37.7647 611.142,37.7647" stroke-linejoin="miter" stroke-dasharray="16,0"/>
   <polyline stroke-linecap="square" stroke="#262626" fill="none" stroke-width="0.5" points="87.7884,188.71 87.7884,37.7647" stroke-linejoin="miter" stroke-dasharray="16,0"/>
   <polyline stroke-linecap="square" stroke="#262626" fill="none" stroke-width="0.5" points="611.142,188.71 611.142,37.7647" stroke-linejoin="miter" stroke-dasharray="16,0"/>
   <g font-style="normal" font-size="17.6" xml:space="preserve" transform="translate(-28.717,113.237) rotate(-90,85.5,0)" font-family="FreeSans" font-weight="bold">
    <text x="0 11 21 37 48 58 65 75 81 92 99 109 114 120 131 141 152 165 " fill="rgb(38,38,38)" y="-4">Temperature [degC]</text>
   </g>
   <g font-style="normal" font-size="17.6" xml:space="preserve" transform="translate(304.465,236.706) rotate(-0,45,-18)" font-family="FreeSans" font-weight="bold">
    <text x="0 11 16 32 42 47 53 64 74 84 " fill="rgb(38,38,38)" y="-4">Time [day]</text>
   </g>
   <polyline stroke-linecap="butt" stroke="#0071bc" fill="none" stroke-width="2" points="87.7884,143.712 88.7586,133.145 89.7296,132.754 90.7006,122.999 91.6721,132.307 92.6427,137.059 93.6125,144.159 94.5811,155.228 95.5477,158.862 96.5133,165.962 97.4778,169.205 98.4416,169.037 99.4051,167.975 100.369,166.521 101.332,167.36 102.296,165.515 103.26,164.341 104.224,164.061 105.189,163.949 106.153,164.005 107.118,165.85 108.082,172.224 109.045,173.677 110.008,172.671 110.971,173.006 111.934,171.776 112.897,169.261 113.86,167.192 114.824,166.018 115.819,166.074 116.784,167.024 117.748,167.807 118.711,166.242 119.675,166.409 120.639,165.515 121.603,166.13 122.567,168.925 123.531,169.875 124.494,166.857 125.458,164.005 126.422,162.496 127.386,161.825 128.351,158.583 129.316,155.396 130.281,155.787 131.247,153.886 132.212,156.514 133.177,154.278 134.144,146.06 135.111,153.551 136.076,154.446 137.042,154.446 138.008,156.626 138.974,160.651 139.939,164.117 140.903,164.117 141.868,164.061 142.832,163.558 143.796,165.068 144.76,164.509 145.724,164.732 146.689,164.173 147.653,166.409 148.617,165.85 149.581,169.037 150.545,173.118 151.508,174.404 152.471,173.062 153.434,167.863 154.397,167.751 155.361,169.316 156.324,166.577 157.288,170.826 158.265,171.72 159.246,168.869 160.209,170.043 161.172,171.664 162.135,174.963 163.098,177.199 164.06,178.261 165.022,179.268 165.983,180.162 166.945,179.883 167.906,179.827 168.897,178.261 169.873,173.118 170.856,170.099 171.819,167.527 172.783,164.341 173.748,149.861 174.716,131.189 175.687,127.108 176.66,127.834 177.632,130.742 178.603,132.167 179.574,136.388 180.544,146.116 181.512,157.297 182.478,164.173 183.442,169.484 184.406,172.335 185.369,174.236 186.331,175.466 187.293,177.199 188.255,178.15 189.217,179.268 190.178,180.386 191.14,181.001 192.101,180.945 193.062,181.392 194.023,180.05 194.984,181.616 195.945,181.783 196.906,180.945 197.867,182.007 198.827,182.287 199.788,182.007 200.749,182.622 201.709,182.51 202.669,182.734 203.63,183.237 204.59,182.51 205.551,182.957 206.511,183.964 207.471,184.69 208.432,183.964 209.392,184.243 210.352,184.579 211.312,183.237 212.29,181.811 213.265,177.87 214.226,175.634 215.188,175.578 216.15,171.553 217.113,155.06 218.079,138.68 219.047,135.997 220.017,132.81 220.987,136.332 221.956,138.624 222.925,146.619 224.052,153.942 225.058,161.993 226.023,167.695 226.986,171.944 227.95,173.174 228.912,174.627 229.874,174.683 230.837,176.864 231.799,178.988 232.76,179.715 233.722,180.889 234.683,182.287 235.644,182.538 236.604,183.069 237.565,182.175 238.526,180.889 239.486,180.721 240.447,181.224 241.408,181.057 242.369,180.945 243.329,181.28 244.29,181.783 245.25,183.181 246.211,184.131 247.171,183.796 248.131,183.125 249.091,181.168 250.052,180.945 251.012,180.833 251.973,179.044 252.934,179.156 253.894,178.988 254.855,177.758 255.816,175.801 256.777,170.882 257.74,164.061 258.703,159.589 259.667,151.706 260.633,138.624 261.602,129.232 262.572,130.686 263.543,135.102 264.513,140.637 265.481,141.084 266.45,145.445 267.417,149.023 268.385,154.893 269.351,163.782 270.316,168.198 271.28,168.646 272.244,166.409 273.207,166.242 274.171,166.409 275.135,169.596 276.114,169.093 277.094,168.254 278.058,169.54 279.021,169.987 279.984,171.273 280.947,172.224 281.91,173.733 282.872,174.013 283.835,174.18 284.797,173.286 285.759,172.224 286.722,171.161 287.684,170.77 288.647,167.527 289.61,167.192 290.574,171.105 291.537,172.615 292.5,172.727 293.462,173.118 294.424,168.925 295.387,170.267 296.35,171.441 297.313,169.372 298.276,165.571 299.24,161.713 300.204,160.204 301.169,154.725 302.135,150.141 303.103,150.532 304.073,139.742 305.047,124.871 306.022,118.722 306.997,127.219 307.97,130.797 308.942,129.847 309.915,136.556 310.886,145.836 311.856,151.315 312.824,156.458 313.791,158.638 314.757,158.918 315.724,159.589 316.69,159.645 317.656,160.986 318.622,160.819 319.588,161.434 320.554,161.322 321.52,161.657 322.486,160.819 323.452,161.21 324.417,159.533 325.383,157.576 326.349,157.688 327.316,157.968 328.283,157.241 329.249,157.576 330.216,158.415 331.182,157.353 332.149,156.794 333.115,156.067 334.082,155.899 335.048,155.675 336.015,155.396 336.982,154.222 337.949,155.396 338.916,154.446 339.883,155.06 340.85,154.781 341.817,154.11 342.784,154.054 343.751,155.955 344.717,157.185 345.683,154.669 346.649,149.805 347.615,153.439 348.582,145.165 349.551,145.892 350.519,148.631 351.487,144.606 352.455,155.116 353.422,154.837 354.389,157.129 355.354,165.683 356.319,168.422 357.284,168.31 358.248,167.472 359.212,166.298 360.176,169.54 361.14,170.994 362.103,170.267 363.067,169.316 364.031,170.77 364.994,167.416 365.958,167.695 366.922,173.509 367.884,176.137 368.847,175.578 369.809,172.056 370.771,173.286 371.734,176.249 372.696,177.926 373.658,180.106 374.62,179.827 375.581,180.106 376.543,180.777 377.504,181.839 378.465,182.51 379.426,183.013 380.386,181.448 381.347,181.057 382.308,179.044 383.269,177.758 384.23,177.535 385.191,174.013 386.153,169.708 387.127,167.919 388.274,167.304 389.238,163.279 390.203,149.079 391.171,136.891 392.141,137.953 393.109,141.084 394.077,138.121 395.046,145.277 396.014,146.06 396.981,151.594 397.947,160.539 398.913,165.794 399.878,170.043 400.842,171.049 401.805,171.609 402.768,170.379 403.732,167.639 404.696,166.633 405.686,164.956 406.656,165.85 407.62,166.018 408.584,164.341 409.548,167.695 410.512,168.59 411.476,164.285 412.44,165.85 413.404,165.068 414.368,167.807 415.332,166.745 416.296,164.9 417.26,166.074 418.225,164.453 419.189,163.279 420.153,162.608 421.118,163.446 422.082,162.272 423.047,161.657 424.012,160.819 424.977,160.819 425.943,159.142 426.908,158.75 427.874,157.297 428.84,156.346 429.806,155.005 430.773,153.942 431.74,150.812 432.707,147.457 433.674,149.917 434.642,149.414 435.609,148.855 436.577,148.464 437.544,146.507 438.511,152.097 439.479,152.936 440.446,153.886 441.413,154.11 442.379,155.675 443.346,157.409 444.312,157.464 445.278,157.464 446.245,158.303 447.211,159.086 448.177,158.247 449.143,158.694 450.109,160.204 451.075,158.694 452.041,157.856 453.008,157.409 453.974,157.353 454.94,156.626 455.906,155.843 456.873,156.29 457.839,156.626 458.806,155.899 459.772,155.787 460.739,155.731 461.706,155.452 462.673,154.725 463.639,154.222 464.606,154.166 465.573,154.166 466.54,154.613 467.507,154.222 468.474,154.166 469.441,154.11 470.408,154.278 471.375,154.11 472.342,153.775 473.309,154.166 474.276,152.209 475.243,147.234 476.21,146.227 477.178,146.898 478.145,144.494 479.114,143.041 480.082,146.786 481.05,151.315 482.017,152.712 482.983,157.129 483.95,153.942 484.916,159.701 485.882,160.875 486.847,161.042 487.812,160.986 488.777,161.154 489.742,163.055 490.707,162.552 491.672,162.943 492.637,163.502 493.601,165.515 494.565,170.043 495.529,171.72 496.492,171.944 497.455,172.056 498.418,169.093 499.381,169.205 500.345,168.478 501.308,167.36 502.271,167.024 503.235,167.695 504.199,168.422 505.162,170.882 506.125,169.764 507.088,171.385 508.051,169.149 509.014,169.484 509.977,167.751 510.941,172 511.904,175.857 512.866,176.696 513.828,172.447 514.79,169.037 515.753,169.205 516.716,162.608 517.68,159.98 518.645,159.757 519.61,151.371 520.577,139.463 521.546,143.823 522.514,142.873 523.481,137.618 524.45,141.587 525.418,146.227 526.386,155.284 527.562,164.005 528.527,166.857 529.491,172.335 530.454,173.286 531.417,174.46 532.38,176.528 533.343,177.646 534.336,177.926 535.297,174.516 536.259,171.385 537.222,170.546 538.185,172.335 539.147,169.596 540.11,168.478 541.073,167.639 542.037,167.527 543,167.304 543.964,167.136 544.927,166.298 545.891,165.235 546.854,164.62 547.818,164.229 548.782,164.229 549.746,163.335 550.71,162.999 551.674,162.608 552.639,162.384 553.604,160.931 554.568,160.819 555.533,159.98 556.499,159.142 557.464,157.464 558.43,155.172 559.396,152.992 560.363,151.986 561.33,150.756 562.297,149.917 563.265,147.457 564.233,144.606 565.2,148.184 566.168,139.854 567.137,141.196 568.106,142.202 569.074,146.116 570.042,147.457 571.009,149.582 571.977,152.936 572.843,154.11" stroke-linejoin="round"/>
   <polyline stroke-linecap="butt" stroke="#d85218" fill="none" stroke-width="2" points="87.7884,146.089 88.7586,134.716 89.7296,134.204 90.7006,125.499 91.6721,131.348 92.6427,135.576 93.6125,140.389 94.5811,150.496 95.5477,155.065 96.5133,161.003 97.4778,164.995 98.4416,165.736 99.4051,164.826 100.369,164.144 101.332,164.464 102.296,163.33 103.26,162.416 104.224,161.89 105.189,161.525 106.153,161.546 107.118,163.19 108.082,168.299 109.045,169.916 110.008,169.566 110.971,169.79 111.934,169.239 112.897,167.584 113.86,165.188 114.824,163.672 115.819,163.536 116.784,164.265 117.748,164.891 118.711,163.965 119.675,163.816 120.639,162.924 121.603,163.341 122.567,165.222 123.531,166.809 124.494,164.639 125.458,162.379 126.422,161.031 127.386,160.239 128.351,157.63 129.316,154.978 130.281,154.576 131.247,153.273 132.212,154.922 133.177,154.48 134.144,145.436 135.111,152.164 136.076,152.906 137.042,153.203 138.008,154.364 138.974,158.124 139.939,161.008 140.903,161.561 141.868,161.864 142.832,161.906 143.796,162.604 144.76,162.129 145.724,162.372 146.689,161.743 147.653,163.441 148.617,162.984 149.581,165.323 150.545,168.85 151.508,170.136 152.471,170.028 153.434,166.121 154.397,165.282 155.361,166.394 156.324,164.797 157.288,166.921 158.265,168.62 159.246,166.433 160.209,167.025 161.172,168.012 162.135,170.662 163.098,172.953 164.06,174.007 165.022,174.958 165.983,175.657 166.945,175.657 167.906,175.732 168.897,174.729 169.873,170.866 170.856,167.827 171.819,165.484 172.783,162.388 173.748,151.845 174.716,134.947 175.687,129.576 176.66,128.364 177.632,130.442 178.603,131.454 179.574,134.573 180.544,141.76 181.512,152.142 182.478,159.073 183.442,164.423 184.406,167.725 185.369,169.872 186.331,171.347 187.293,172.955 188.255,174.148 189.217,175.271 190.178,176.202 191.14,176.92 192.101,176.959 193.062,177.383 194.023,176.356 194.984,177.695 195.945,177.999 196.906,177.334 197.867,177.931 198.827,178.24 199.788,178.758 200.749,179.714 201.709,179.32 202.669,179.309 203.63,179.735 204.59,179.231 205.551,179.842 206.511,180.371 207.471,181.044 208.432,180.479 209.392,180.891 210.352,180.906 211.312,179.89 212.29,178.866 213.265,175.682 214.226,173.118 215.188,172.203 216.15,169.5 217.113,156.742 218.079,141.261 219.047,137.361 220.017,133.64 220.987,135.502 221.956,137.186 222.925,142.935 224.052,149.662 225.058,157.158 226.023,162.854 226.986,167.249 227.95,169.109 228.912,170.683 229.874,171.116 230.837,172.76 231.799,174.609 232.76,175.327 233.722,176.534 234.683,177.608 235.644,178.336 236.604,178.78 237.565,178.96 238.526,177.713 239.486,177.367 240.447,177.824 241.408,178.165 242.369,178.01 243.329,178.247 244.29,178.271 245.25,179.581 246.211,180.278 247.171,179.881 248.131,179.623 249.091,178.546 250.052,177.947 251.012,177.527 251.973,176.811 252.934,176.684 253.894,176.858 254.855,175.916 255.816,173.362 256.777,169.693 257.74,163.463 258.703,159.661 259.667,152.924 260.633,142.364 261.602,132.505 262.572,132.239 263.543,134.412 264.513,139.05 265.481,140.341 266.45,143.689 267.417,146.994 268.385,151.44 269.351,159.008 270.316,163.652 271.28,165.387 272.244,163.982 273.207,163.699 274.171,163.506 275.135,166.392 276.114,166.863 277.094,165.637 278.058,166.555 279.021,167.243 279.984,168.412 280.947,169.221 281.91,170.46 282.872,170.952 283.835,171.343 284.797,171.086 285.759,170.554 286.722,168.886 287.684,168.151 288.647,165.72 289.61,164.884 290.574,167.568 291.537,169.178 292.5,169.542 293.462,169.834 294.424,166.999 295.387,167.442 296.35,168.549 297.313,167.226 298.276,164.089 299.24,160.573 300.204,159.295 301.169,154.165 302.135,150.268 303.103,149.29 304.073,140.657 305.047,127.302 306.022,121.585 306.997,126.247 307.97,130.596 308.942,129.517 309.915,133.962 310.886,141.764 311.856,147.359 312.824,152.613 313.791,155.394 314.757,156.086 315.724,156.973 316.69,157.276 317.656,158.278 318.622,158.584 319.588,158.813 320.554,158.98 321.52,159.02 322.486,158.73 323.452,159.063 324.417,157.709 325.383,156.396 326.349,155.968 327.316,156.047 328.283,155.282 329.249,155.374 330.216,156.188 331.182,155.491 332.149,154.889 333.115,154.488 334.082,154.51 335.048,154.394 336.015,153.509 336.982,152.782 337.949,153.563 338.916,152.972 339.883,153.227 340.85,153.227 341.817,152.723 342.784,152.504 343.751,153.626 344.717,155.019 345.683,153.686 346.649,150.159 347.615,151.285 348.582,146.237 349.551,145.192 350.519,147.68 351.487,143.985 352.455,151.349 353.422,152.99 354.389,154.055 355.354,161.353 356.319,164.535 357.284,165.265 358.248,164.832 359.212,163.93 360.176,165.835 361.14,167.71 362.103,167.287 363.067,166.796 364.031,167.338 364.994,165.299 365.958,165.014 366.922,169.158 367.884,172.036 368.847,171.918 369.809,170.243 370.771,170.291 371.734,172.66 372.696,174.072 373.658,175.854 374.62,175.951 375.581,176.381 376.543,176.937 377.504,177.976 378.465,178.443 379.426,178.956 380.386,178.398 381.347,177.779 382.308,176.811 383.269,174.947 384.23,174.42 385.191,171.704 386.153,168.294 387.127,165.582 388.274,165.289 389.238,161.577 390.203,150.957 391.171,139.909 392.141,138.246 393.109,141.463 394.077,138.65 395.046,143.155 396.014,144.821 396.981,149.365 397.947,156.29 398.913,161.495 399.878,165.563 400.842,167.253 401.805,167.905 402.768,167.456 403.732,165.413 404.696,164.42 405.686,163.113 406.656,163.625 407.62,163.968 408.584,162.47 409.548,164.873 410.512,165.836 411.476,163.354 412.44,163.745 413.404,162.8 414.368,164.013 415.332,164.424 416.296,162.596 417.26,163.346 418.225,162.409 419.189,161.411 420.153,160.878 421.118,161.16 422.082,160.317 423.047,159.658 424.012,159.148 424.977,158.796 425.943,157.76 426.908,157.099 427.874,155.887 428.84,155.007 429.806,153.735 430.773,152.698 431.74,150.421 432.707,147.291 433.674,148.874 434.642,148.446 435.609,148.011 436.577,147.869 437.544,146.031 438.511,150.108 439.479,150.961 440.446,151.883 441.413,152.327 442.379,153.523 443.346,154.912 444.312,155.334 445.278,155.242 446.245,155.951 447.211,156.696 448.177,156.369 449.143,156.235 450.109,157.491 451.075,156.799 452.041,156.084 453.008,155.646 453.974,155.398 454.94,154.98 455.906,154.634 456.873,154.634 457.839,154.752 458.806,154.369 459.772,153.982 460.739,153.704 461.706,153.376 462.673,153.166 463.639,152.954 464.606,152.73 465.573,152.708 466.54,153.137 467.507,153.042 468.474,152.856 469.441,152.842 470.408,152.951 471.375,152.622 472.342,152.199 473.309,152.021 474.276,151.297 475.243,147.679 476.21,145.8 477.178,146.428 478.145,144.736 479.114,143.052 480.082,145.342 481.05,150.321 482.017,151.366 482.983,155.191 483.95,152.834 484.916,157.614 485.882,159.047 486.847,159.159 487.812,159.43 488.777,159.56 489.742,160.711 490.707,160.656 491.672,160.923 492.637,161.423 493.601,162.882 494.565,166.443 495.529,168.58 496.492,168.776 497.455,169.465 498.418,167.53 499.381,166.967 500.345,166.799 501.308,165.41 502.271,165.246 503.235,165.003 504.199,166.46 505.162,168.263 506.125,167.91 507.088,168.949 508.051,167.27 509.014,167.482 509.977,165.968 510.941,168.879 511.904,171.931 512.866,173.219 513.828,170.993 514.79,167.383 515.753,166.812 516.716,161.73 517.68,158.721 518.645,158.448 519.61,152.156 520.577,141.331 521.546,143.547 522.514,142.732 523.481,139.882 524.45,140.247 525.418,144.604 526.386,151.356 527.562,160.16 528.527,162.924 529.491,167.536 530.454,169.477 531.417,170.635 532.38,172.52 533.343,173.584 534.336,174.054 535.297,171.881 536.259,169.33 537.222,168.114 538.185,169.5 539.147,167.606 540.11,166.408 541.073,165.867 542.037,165.388 543,164.901 543.964,164.487 544.927,164.14 545.891,163.535 546.854,163.138 547.818,162.701 548.782,162.424 549.746,161.996 550.71,161.237 551.674,160.684 552.639,160.098 553.604,159.433 554.568,158.732 555.533,158.152 556.499,157.572 557.464,156.471 558.43,154.335 559.396,152.152 560.363,150.849 561.33,149.638 562.297,148.811 563.265,147.435 564.233,144.098 565.2,147.195 566.168,142.218 567.137,140.03 568.106,142.138 569.074,144.803 570.042,145.944 571.009,148.017 571.977,150.808 572.843,152.004" stroke-linejoin="round"/>
   <polyline stroke-linecap="butt" stroke="#ecb01f" fill="none" stroke-width="2" points="87.7884,149.231 88.7586,138.941 89.7296,137.372 90.7006,131.34 91.6721,131.912 92.6427,135.208 93.6125,137.593 94.5811,145.516 95.5477,150.965 96.5133,156.161 97.4778,160.749 98.4416,163.115 99.4051,163.694 100.369,163.661 101.332,163.805 102.296,163.555 103.26,162.709 104.224,162.134 105.189,161.614 106.153,161.535 107.118,162.033 108.082,164.911 109.045,167.16 110.008,168.075 110.971,168.144 111.934,168.275 112.897,167.598 113.86,165.756 114.824,164.248 115.819,163.586 116.784,163.823 117.748,164.206 118.711,164.004 119.675,163.733 120.639,163.188 121.603,163.123 122.567,163.876 123.531,165.477 124.494,165.055 125.458,163.569 126.422,161.887 127.386,161.169 128.351,159.34 129.316,157.272 130.281,155.846 131.247,155.378 132.212,155.481 133.177,156.434 134.144,148.996 135.111,152.508 136.076,153.536 137.042,154.399 138.008,154.395 138.974,156.825 139.939,159.342 140.903,160.573 141.868,161.222 142.832,161.532 143.796,162.024 144.76,161.993 145.724,162.224 146.689,161.812 147.653,162.336 148.617,162.685 149.581,163.439 150.545,165.984 151.508,167.66 152.471,168.771 153.434,166.986 154.397,165.373 155.361,165.614 156.324,165.302 157.288,165.292 158.265,167.306 159.246,166.413 160.209,166.503 161.172,166.713 162.135,168.325 163.098,170.262 164.06,171.285 165.022,172.447 165.983,173.252 166.945,173.629 167.906,173.967 168.897,173.462 169.873,171.214 170.856,167.804 171.819,165.626 172.783,162.941 173.748,156.654 174.716,142.596 175.687,134.585 176.66,131.221 177.632,131.562 178.603,131.923 179.574,133.37 180.544,137.442 181.512,146.373 182.478,153.327 183.442,159.342 184.406,163.503 185.369,166.377 186.331,168.392 187.293,170.178 188.255,171.247 189.217,172.681 190.178,173.535 191.14,174.529 192.101,174.919 193.062,175.263 194.023,175.153 194.984,175.772 195.945,176.158 196.906,175.956 197.867,176.058 198.827,176.401 199.788,176.887 200.749,177.527 201.709,177.779 202.669,177.631 203.63,177.946 204.59,177.776 205.551,177.898 206.511,178.271 207.471,178.905 208.432,178.789 209.392,178.875 210.352,179.15 211.312,178.724 212.29,177.956 213.265,175.908 214.226,172.909 215.188,171.464 216.15,169.528 217.113,161.625 218.079,147.851 219.047,141.426 220.017,136.773 220.987,135.999 221.956,136.712 222.925,139.515 224.052,145.581 225.058,152.305 226.023,157.939 226.986,162.796 227.95,165.881 228.912,167.879 229.874,169.056 230.837,170.216 231.799,171.517 232.76,172.99 233.722,174.044 234.683,175.211 235.644,176.03 236.604,176.684 237.565,177.076 238.526,176.537 239.486,176.065 240.447,176.004 241.408,176.481 242.369,176.567 243.329,176.73 244.29,176.897 245.25,177.493 246.211,178.171 247.171,178.3 248.131,178.221 249.091,177.701 250.052,176.96 251.012,176.52 251.973,176.144 252.934,175.843 253.894,175.919 254.855,175.471 255.816,173.891 256.777,171.514 257.74,166.173 258.703,162.756 259.667,157.727 260.633,149.715 261.602,139.583 262.572,136.581 263.543,135.796 264.513,139.251 265.481,141.327 266.45,143.534 267.417,146.461 268.385,149.226 269.351,154.628 270.316,159.489 271.28,162.573 272.244,163.246 273.207,163.071 274.171,162.96 275.135,164.204 276.114,165.506 277.094,165.266 278.058,165.335 279.021,166.151 279.984,166.879 280.947,167.748 281.91,168.544 282.872,169.455 283.835,169.988 284.797,170.185 285.759,169.817 286.722,169.059 287.684,168.198 288.647,166.598 289.61,165.382 290.574,166.026 291.537,167.596 292.5,168.319 293.462,168.787 294.424,167.782 295.387,166.946 296.35,167.548 297.313,167.415 298.276,165.475 299.24,162.328 300.204,160.694 301.169,156.731 302.135,152.919 303.103,149.86 304.073,143.447 305.047,132.135 306.022,127.202 306.997,127.18 307.97,131.015 308.942,130.466 309.915,131.974 310.886,137.564 311.856,143.306 312.824,148.538 313.791,152.536 314.757,154.233 315.724,155.396 316.69,156.169 317.656,156.866 318.622,157.506 319.588,157.671 320.554,157.975 321.52,158.174 322.486,158.207 323.452,158.472 324.417,158.027 325.383,156.875 326.349,156.016 327.316,155.838 328.283,155.328 329.249,155.062 330.216,155.55 331.182,155.608 332.149,155.193 333.115,154.758 334.082,154.658 335.048,154.545 336.015,153.891 336.982,153.197 337.949,153.25 338.916,153.285 339.883,153.107 340.85,153.487 341.817,153.033 342.784,152.824 343.751,153.158 344.717,154.816 345.683,154.689 346.649,152.907 347.615,151.725 348.582,150.068 349.551,146.744 350.519,148.36 351.487,145.557 352.455,148.578 353.422,151.903 354.389,152.737 355.354,157.955 356.319,161.598 357.284,163.461 358.248,163.812 359.212,163.355 360.176,163.857 361.14,165.74 362.103,165.989 363.067,166.163 364.031,165.735 364.994,165.488 365.958,164.519 366.922,166.608 367.884,169.184 368.847,170.46 369.809,169.817 370.771,169.315 371.734,170.585 372.696,171.549 373.658,172.965 374.62,173.865 375.581,174.24 376.543,174.653 377.504,175.534 378.465,176.09 379.426,176.585 380.386,176.859 381.347,176.218 382.308,176 383.269,174.736 384.23,173.958 385.191,172.38 386.153,169.886 387.127,166.298 388.274,165.356 389.238,162.558 390.203,155.909 391.171,145.705 392.141,141.067 393.109,143.797 394.077,141.627 395.046,142.293 396.014,145.297 396.981,148.72 397.947,153.053 398.913,158.084 399.878,161.729 400.842,164.42 401.805,165.796 402.768,166.248 403.732,165.384 404.696,164.393 405.686,163.326 406.656,163.281 407.62,163.608 408.584,162.715 409.548,163.426 410.512,164.607 411.476,163.826 412.44,163.368 413.404,162.967 414.368,163.025 415.332,164.053 416.296,162.684 417.26,163.045 418.225,162.581 419.189,161.846 420.153,161.251 421.118,161.109 422.082,160.84 423.047,160.082 424.012,159.603 424.977,159.186 425.943,158.382 426.908,157.704 427.874,156.783 428.84,155.845 429.806,154.735 430.773,153.668 431.74,152.252 432.707,149.782 433.674,150.009 434.642,149.643 435.609,149.315 436.577,149.331 437.544,148.137 438.511,149.942 439.479,151.124 440.446,151.945 441.413,152.441 442.379,153.174 443.346,154.344 444.312,155.065 445.278,155.2 446.245,155.565 447.211,156.129 448.177,156.295 449.143,155.999 450.109,156.724 451.075,156.91 452.041,156.328 453.008,155.98 453.974,155.707 454.94,155.347 455.906,155.002 456.873,154.831 457.839,154.861 458.806,154.637 459.772,154.345 460.739,154.097 461.706,153.768 462.673,153.534 463.639,153.316 464.606,153.075 465.573,152.949 466.54,153.186 467.507,153.248 468.474,153.135 469.441,153.078 470.408,153.129 471.375,152.981 472.342,152.779 473.309,152.254 474.276,152.577 475.243,150.689 476.21,148.084 477.178,148.417 478.145,147.984 479.114,145.98 480.082,146.564 481.05,150.328 482.017,151.636 482.983,154.238 483.95,153.586 484.916,155.895 485.882,157.827 486.847,158.444 487.812,158.99 488.777,159.148 489.742,159.846 490.707,160.415 491.672,160.508 492.637,160.908 493.601,161.673 494.565,163.863 495.529,166.168 496.492,167.006 497.455,167.955 498.418,167.409 499.381,166.454 500.345,166.545 501.308,165.276 502.271,165.168 503.235,164.851 504.199,165.265 505.162,166.477 506.125,167.068 507.088,167.616 508.051,167.154 509.014,167.047 509.977,166.151 510.941,166.914 511.904,169.183 512.866,170.801 513.828,170.671 514.79,168.699 515.753,167.076 516.716,164 517.68,160.656 518.645,159.671 519.61,155.895 520.577,146.927 521.546,145.342 522.514,145.519 523.481,144.987 524.45,141.586 525.418,144.465 526.386,148.415 527.562,156.951 528.527,160.199 529.491,163.74 530.454,166.607 531.417,168.19 532.38,169.883 533.343,170.951 534.336,172.003 535.297,171.288 536.259,169.987 537.222,168.558 538.185,168.752 539.147,168.012 540.11,166.828 541.073,166.157 542.037,165.641 543,165.164 543.964,164.712 544.927,164.349 545.891,163.887 546.854,163.463 547.818,163.101 548.782,162.722 549.746,162.35 550.71,161.775 551.674,161.16 552.639,160.641 553.604,160.059 554.568,159.359 555.533,158.778 556.499,158.272 557.464,157.479 558.43,155.972 559.396,153.912 560.363,152.292 561.33,151.141 562.297,150.282 563.265,149.49 564.233,146.538 565.2,147.993 566.168,146.61 567.137,142.268 568.106,144.268 569.074,145.357 570.042,146.628 571.009,148.298 571.977,150.167 572.843,151.621" stroke-linejoin="round"/>
   <polyline stroke-linecap="butt" stroke="#7d2e8d" fill="none" stroke-width="2" points="87.7884,154.397 88.7586,147.195 89.7296,144.564 90.7006,140.878 91.6721,139.058 92.6427,140.209 93.6125,141.447 94.5811,145.886 95.5477,150.76 96.5133,155.038 97.4778,159.17 98.4416,162.106 99.4051,163.682 100.369,164.3 101.332,164.447 102.296,164.458 103.26,163.896 104.224,163.29 105.189,162.732 106.153,162.555 107.118,162.742 108.082,164.132 109.045,166.043 110.008,167.439 110.971,167.729 111.934,168.059 112.897,167.869 113.86,166.727 114.824,165.406 115.819,164.651 116.784,164.543 117.748,164.588 118.711,164.591 119.675,164.507 120.639,164.326 121.603,164.067 122.567,164.33 123.531,165.023 124.494,165.644 125.458,164.83 126.422,163.837 127.386,162.834 128.351,161.663 129.316,160.067 130.281,158.863 131.247,158.553 132.212,158.34 133.177,158.724 134.144,155.353 135.111,155.415 136.076,156.479 137.042,157.156 138.008,156.894 138.974,157.838 139.939,159.474 140.903,160.864 141.868,161.724 142.832,162.219 143.796,162.629 144.76,162.885 145.724,162.992 146.689,162.822 147.653,162.784 148.617,163.19 149.581,163.535 150.545,164.898 151.508,166.625 152.471,168.036 153.434,167.785 154.397,166.353 155.361,165.911 156.324,165.987 157.288,165.655 158.265,166.801 159.246,166.995 160.209,166.896 161.172,166.971 162.135,167.789 163.098,169.091 164.06,170.362 165.022,171.48 165.983,172.353 166.945,172.932 167.906,173.251 168.897,173.136 169.873,171.913 170.856,169.288 171.819,166.928 172.783,164.587 173.748,160.989 174.716,152.836 175.687,145.508 176.66,141.085 177.632,139.392 178.603,139.208 179.574,139.572 180.544,141.167 181.512,146.609 182.478,152.399 183.442,157.629 184.406,161.935 185.369,164.992 186.331,167.375 187.293,169.231 188.255,170.61 189.217,171.806 190.178,172.696 191.14,173.579 192.101,174.123 193.062,174.533 194.023,174.934 194.984,175.313 195.945,175.64 196.906,175.765 197.867,175.771 198.827,175.982 199.788,176.282 200.749,176.823 201.709,177.259 202.669,177.263 203.63,177.459 204.59,177.476 205.551,177.376 206.511,177.714 207.471,178.161 208.432,178.228 209.392,178.26 210.352,178.586 211.312,178.472 212.29,178.003 213.265,176.732 214.226,174.63 215.188,172.7 216.15,170.676 217.113,166.325 218.079,158.088 219.047,151.556 220.017,146.837 220.987,144.305 221.956,143.703 222.925,144.196 224.052,147.681 225.058,152.384 226.023,157.075 226.986,161.395 227.95,164.643 228.912,166.929 229.874,168.409 230.837,169.4 231.799,170.649 232.76,172.06 233.722,173.246 234.683,174.331 235.644,175.225 236.604,175.936 237.565,176.376 238.526,176.236 239.486,175.805 240.447,175.595 241.408,175.943 242.369,176.243 243.329,176.485 244.29,176.65 245.25,176.898 246.211,177.422 247.171,177.78 248.131,177.881 249.091,177.601 250.052,176.903 251.012,176.5 251.973,176.336 252.934,176.137 253.894,176.107 254.855,175.817 255.816,174.935 256.777,173.172 257.74,169.598 258.703,166.266 259.667,162.948 260.633,157.632 261.602,150.32 262.572,145.749 263.543,143.333 264.513,144.237 265.481,145.823 266.45,147.038 267.417,148.951 268.385,150.754 269.351,153.991 270.316,158.186 271.28,161.662 272.244,163.497 273.207,163.657 274.171,163.607 275.135,164.157 276.114,165.049 277.094,165.555 278.058,165.581 279.021,166.203 279.984,166.792 280.947,167.515 281.91,168.255 282.872,169.166 283.835,169.774 284.797,170.147 285.759,170.011 286.722,169.638 287.684,168.883 288.647,167.871 289.61,166.682 290.574,166.438 291.537,167.43 292.5,168.357 293.462,168.932 294.424,168.785 295.387,167.819 296.35,167.833 297.313,167.977 298.276,166.989 299.24,164.849 300.204,162.926 301.169,159.965 302.135,156.505 303.103,152.847 304.073,147.703 305.047,140.193 306.022,135.88 306.997,133.903 307.97,135.45 308.942,135.472 309.915,135.627 310.886,138.764 311.856,143.452 312.824,147.91 313.791,151.765 314.757,153.999 315.724,155.318 316.69,156.295 317.656,156.899 318.622,157.53 319.588,157.687 320.554,157.913 321.52,158.215 322.486,158.535 323.452,158.852 324.417,158.902 325.383,158.05 326.349,157.005 327.316,156.486 328.283,156.163 329.249,155.811 330.216,156.005 331.182,156.409 332.149,156.29 333.115,155.949 334.082,155.712 335.048,155.47 336.015,154.882 336.982,154.397 337.949,154.161 338.916,154.235 339.883,154.109 340.85,154.402 341.817,154.257 342.784,154.08 343.751,154.231 344.717,155.641 345.683,156.24 346.649,155.649 347.615,154.879 348.582,153.829 349.551,151.356 350.519,151.675 351.487,150.22 352.455,151.006 353.422,153.319 354.389,154.498 355.354,157.61 356.319,160.741 357.284,162.883 358.248,163.724 359.212,163.752 360.176,163.95 361.14,164.928 362.103,165.662 363.067,165.962 364.031,165.537 364.994,165.648 365.958,164.93 366.922,165.945 367.884,167.974 368.847,169.503 369.809,169.793 370.771,169.506 371.734,169.934 372.696,170.83 373.658,171.864 374.62,172.869 375.581,173.334 376.543,173.791 377.504,174.468 378.465,175.131 379.426,175.673 380.386,176.086 381.347,175.841 382.308,175.82 383.269,175.091 384.23,174.357 385.191,173.395 386.153,171.482 387.127,168.77 388.274,166.711 389.238,164.573 390.203,160.692 391.171,154.013 392.141,149.342 393.109,149.897 394.077,148.209 395.046,147.162 396.014,149.327 396.981,151.488 397.947,153.889 398.913,157.284 399.878,160.527 400.842,163.395 401.805,164.876 402.768,165.785 403.732,165.67 404.696,164.892 405.686,164.487 406.656,164.231 407.62,164.225 408.584,163.799 409.548,163.768 410.512,164.486 411.476,164.571 412.44,164.272 413.404,163.955 414.368,163.701 415.332,164.342 416.296,163.811 417.26,163.686 418.225,163.573 419.189,163.076 420.153,162.543 421.118,162.217 422.082,161.996 423.047,161.459 424.012,160.933 424.977,160.439 425.943,159.756 426.908,159.093 427.874,158.394 428.84,157.49 429.806,156.484 430.773,155.452 431.74,154.425 432.707,153.026 433.674,152.56 434.642,152.313 435.609,152.067 436.577,152.105 437.544,151.718 438.511,151.991 439.479,152.717 440.446,153.283 441.413,153.736 442.379,154.233 443.346,155.096 444.312,155.836 445.278,156.149 446.245,156.343 447.211,156.649 448.177,156.901 449.143,156.826 450.109,157.133 451.075,157.49 452.041,157.329 453.008,157.093 453.974,156.775 454.94,156.492 455.906,156.179 456.873,155.917 457.839,155.837 458.806,155.668 459.772,155.412 460.739,155.206 461.706,154.92 462.673,154.679 463.639,154.484 464.606,154.239 465.573,154.092 466.54,154.148 467.507,154.212 468.474,154.176 469.441,154.13 470.408,154.121 471.375,154.05 472.342,153.95 473.309,153.597 474.276,154.051 475.243,153.604 476.21,152.139 477.178,151.893 478.145,151.786 479.114,150.548 480.082,150.36 481.05,152.427 482.017,153.841 482.983,155.114 483.95,155.397 484.916,156.463 485.882,158.079 486.847,158.943 487.812,159.512 488.777,159.833 489.742,160.389 490.707,160.979 491.672,161.186 492.637,161.492 493.601,162.041 494.565,163.429 495.529,165.222 496.492,166.467 497.455,167.308 498.418,167.483 499.381,166.837 500.345,166.792 501.308,166 502.271,165.558 503.235,165.197 504.199,165.158 505.162,166.016 506.125,166.878 507.088,167.26 508.051,167.518 509.014,167.351 509.977,166.858 510.941,166.774 511.904,168.205 512.866,169.866 513.828,170.523 514.79,169.769 515.753,168.184 516.716,165.949 517.68,163.71 518.645,162.139 519.61,159.784 520.577,154.479 521.546,151.829 522.514,151.86 523.481,151.458 524.45,148.511 525.418,148.904 526.386,151.122 527.562,156.965 528.527,159.853 529.491,162.635 530.454,165.329 531.417,167.366 532.38,168.963 533.343,170.216 534.336,171.299 535.297,171.585 536.259,170.897 537.222,169.739 538.185,169.157 539.147,168.806 540.11,167.948 541.073,167.212 542.037,166.673 543,166.175 543.964,165.715 544.927,165.201 545.891,164.827 546.854,164.619 547.818,164.435 548.782,164.057 549.746,163.668 550.71,163.171 551.674,162.551 552.639,162.028 553.604,161.5 554.568,160.841 555.533,160.218 556.499,159.725 557.464,159.113 558.43,158.008 559.396,156.294 560.363,154.647 561.33,153.652 562.297,152.871 563.265,152.198 564.233,150.673 565.2,150.601 566.168,150.203 567.137,147.95 568.106,148.351 569.074,148.8 570.042,149.591 571.009,150.502 571.977,151.528 572.843,152.653" stroke-linejoin="round"/>
   <polyline stroke-linecap="butt" stroke="#76ab2f" fill="none" stroke-width="2" points="87.7884,151.462 88.7586,148.531 89.7296,147.908 90.7006,144.974 91.6721,145.729 92.6427,147.016 93.6125,148.596 94.5811,152.72 95.5477,155.659 96.5133,158.929 97.4778,161.298 98.4416,162.66 99.4051,162.914 100.369,162.658 101.332,162.76 102.296,162.074 103.26,161.237 104.224,160.696 105.189,160.357 106.153,160.746 107.118,161.58 108.082,164.006 109.045,165.337 110.008,165.174 110.971,165.385 111.934,165.391 112.897,164.694 113.86,163.433 114.824,162.698 115.819,162.508 116.784,162.501 117.748,162.543 118.711,162.212 119.675,162.302 120.639,161.899 121.603,162.013 122.567,162.706 123.531,164.222 124.494,163.352 125.458,162.068 126.422,160.989 127.386,160.408 128.351,158.999 129.316,157.717 130.281,158.028 131.247,157.605 132.212,158.059 133.177,157.321 134.144,154.827 135.111,156.814 136.076,157.042 137.042,156.648 138.008,156.839 138.974,158.317 139.939,159.855 140.903,160.339 141.868,160.709 142.832,160.818 143.796,161.31 144.76,161.097 145.724,161.065 146.689,160.54 147.653,161.082 148.617,161.129 149.581,162.09 150.545,164.182 151.508,165.373 152.471,166.197 153.434,163.989 154.397,163.135 155.361,163.929 156.324,163.561 157.288,164.005 158.265,165.414 159.246,164.425 160.209,164.788 161.172,165.179 162.135,166.228 163.098,167.26 164.06,168.54 165.022,169.25 165.983,170.062 166.945,170.218 167.906,170.361 168.897,169.551 169.873,167.539 170.856,164.97 171.819,162.686 172.783,161.146 173.748,156.771 174.716,151.126 175.687,148.694 176.66,146.94 177.632,146.608 178.603,147.14 179.574,147.217 180.544,150.638 181.512,154.518 182.478,158.451 183.442,161.823 184.406,164.263 185.369,166 186.331,167.671 187.293,168.616 188.255,169.558 189.217,170.187 190.178,170.918 191.14,171.407 192.101,171.704 193.062,172.129 194.023,172.721 194.984,172.961 195.945,173.209 196.906,173.077 197.867,173.274 198.827,173.553 199.788,174.136 200.749,174.803 201.709,174.569 202.669,174.527 203.63,174.962 204.59,174.223 205.551,174.817 206.511,175.369 207.471,175.363 208.432,175.052 209.392,175.678 210.352,175.89 211.312,175.535 212.29,174.837 213.265,173.146 214.226,170.891 215.188,168.988 216.15,166.77 217.113,161.495 218.079,157.76 219.047,155.374 220.017,152.269 220.987,152.112 221.956,150.694 222.925,151.876 224.052,155.065 225.058,158.54 226.023,161.695 226.986,164.317 227.95,165.889 228.912,166.892 229.874,166.97 230.837,168.026 231.799,169.527 232.76,170.726 233.722,171.78 234.683,172.69 235.644,173.203 236.604,173.795 237.565,173.51 238.526,172.682 239.486,172.241 240.447,172.925 241.408,173.566 242.369,173.94 243.329,174.276 244.29,173.99 245.25,174.638 246.211,175.032 247.171,175.156 248.131,175.215 249.091,173.831 250.052,173.217 251.012,173.826 251.973,173.606 252.934,173.793 253.894,173.518 254.855,172.941 255.816,171.833 256.777,168.458 257.74,165.276 258.703,163.01 259.667,159.421 260.633,154.265 261.602,150.508 262.572,148.696 263.543,148.71 264.513,149.831 265.481,149.541 266.45,150.753 267.417,152.109 268.385,153.818 269.351,157.808 270.316,161.127 271.28,163.056 272.244,162.35 273.207,161.564 274.171,161.552 275.135,163.265 276.114,163.815 277.094,163.492 278.058,163.961 279.021,164.484 279.984,164.949 280.947,165.733 281.91,166.857 282.872,167.373 283.835,167.843 284.797,167.538 285.759,167.312 286.722,166.427 287.684,165.804 288.647,164.423 289.61,163.844 290.574,164.988 291.537,166.312 292.5,166.842 293.462,167.297 294.424,165.561 295.387,165.363 296.35,165.92 297.313,165.511 298.276,163.629 299.24,161.202 300.204,159.451 301.169,155.97 302.135,152.023 303.103,147.943 304.073,142.783 305.047,140.47 306.022,137.684 306.997,139.191 307.97,139.907 308.942,138.741 309.915,140.865 310.886,145.264 311.856,148.653 312.824,151.949 313.791,153.477 314.757,153.786 315.724,154.377 316.69,154.709 317.656,155.127 318.622,155.18 319.588,154.958 320.554,155.236 321.52,156.186 322.486,156.497 323.452,157.105 324.417,155.956 325.383,154.306 326.349,153.384 327.316,153.724 328.283,153.038 329.249,153.401 330.216,154.383 331.182,154.39 332.149,154.021 333.115,153.812 334.082,153.569 335.048,152.716 336.015,152.354 336.982,152.072 337.949,152.31 338.916,152.205 339.883,152.431 340.85,152.72 341.817,152.358 342.784,152.075 343.751,153.633 344.717,154.997 345.683,154.655 346.649,154.006 347.615,154.455 348.582,151.954 349.551,152.078 350.519,152.211 351.487,151.025 352.455,154.538 353.422,154.637 354.389,155.739 355.354,158.653 356.319,160.77 357.284,161.43 358.248,161.167 359.212,161.172 360.176,162.41 361.14,163.282 362.103,163.14 363.067,162.912 364.031,163.057 364.994,162.657 365.958,163.007 366.922,165.392 367.884,167.146 368.847,167.574 369.809,167.098 370.771,166.789 371.734,167.926 372.696,168.89 373.658,169.987 374.62,170.223 375.581,170.514 376.543,171.07 377.504,172.05 378.465,172.724 379.426,173.13 380.386,172.854 381.347,173.077 382.308,172.606 383.269,171.575 384.23,171.26 385.191,169.443 386.153,167.185 387.127,165.445 388.274,163.426 389.238,160.56 390.203,156.571 391.171,153.5 392.141,153.471 393.109,153.148 394.077,150.576 395.046,152.681 396.014,153.089 396.981,154.175 397.947,156.641 398.913,159.259 399.878,162.169 400.842,163.243 401.805,163.74 402.768,163.782 403.732,162.996 404.696,162.594 405.686,162.153 406.656,161.965 407.62,161.948 408.584,161.41 409.548,162.06 410.512,162.91 411.476,162.029 412.44,161.953 413.404,161.557 414.368,161.828 415.332,162.193 416.296,161.175 417.26,161.761 418.225,161.312 419.189,160.735 420.153,160.372 421.118,160.218 422.082,159.691 423.047,159.118 424.012,158.626 424.977,158.065 425.943,157.223 426.908,156.728 427.874,155.838 428.84,154.834 429.806,153.898 430.773,153.005 431.74,151.853 432.707,151.394 433.674,151.721 434.642,151.814 435.609,151.727 436.577,151.548 437.544,151.163 438.511,151.867 439.479,152.161 440.446,152.488 441.413,152.646 442.379,153.364 443.346,154.091 444.312,154.371 445.278,154.329 446.245,154.51 447.211,154.75 448.177,154.81 449.143,154.843 450.109,155.301 451.075,155.252 452.041,155.175 453.008,154.793 453.974,154.467 454.94,154.302 455.906,153.986 456.873,153.916 457.839,153.796 458.806,153.403 459.772,153.172 460.739,153.04 461.706,152.79 462.673,152.607 463.639,152.399 464.606,152.165 465.573,152.128 466.54,152.185 467.507,152.083 468.474,152.081 469.441,152.066 470.408,151.973 471.375,151.79 472.342,151.777 473.309,151.975 474.276,152.381 475.243,151.488 476.21,150.948 477.178,150.907 478.145,150.387 479.114,149.714 480.082,150.935 481.05,152.825 482.017,153.273 482.983,154.587 483.95,154.076 484.916,156.049 485.882,156.682 486.847,157.297 487.812,157.529 488.777,158.278 489.742,158.873 490.707,159.006 491.672,159.213 492.637,159.517 493.601,160.256 494.565,162.942 495.529,164.246 496.492,164.374 497.455,164.989 498.418,164.185 499.381,163.92 500.345,164.14 501.308,162.725 502.271,162.901 503.235,162.777 504.199,163.199 505.162,164.061 506.125,164.457 507.088,165.093 508.051,164.869 509.014,164.311 509.977,163.796 510.941,165.148 511.904,167.304 512.866,168.213 513.828,167.704 514.79,166.084 515.753,164.401 516.716,161.655 517.68,160.401 518.645,158.838 519.61,156.033 520.577,153.289 521.546,154.753 522.514,154.1 523.481,152.217 524.45,151.955 525.418,153.03 526.386,156.479 527.562,159.462 528.527,160.569 529.491,163.709 530.454,165.359 531.417,166.683 532.38,167.525 533.343,168.408 534.336,169.425 535.297,168.979 536.259,167.551 537.222,166.576 538.185,166.721 539.147,165.855 540.11,165.098 541.073,164.627 542.037,164.302 543,163.86 543.964,163.586 544.927,163.324 545.891,163.116 546.854,162.758 547.818,162.314 548.782,162.017 549.746,161.573 550.71,160.868 551.674,160.369 552.639,159.848 553.604,159.143 554.568,158.483 555.533,157.947 556.499,157.467 557.464,156.435 558.43,154.992 559.396,153.052 560.363,152.52 561.33,151.927 562.297,151.42 563.265,150.693 564.233,150.158 565.2,150.66 566.168,148.919 567.137,149.398 568.106,149.61 569.074,150.168 570.042,150.418 571.009,150.95 571.977,151.863 572.843,152.431" stroke-linejoin="round"/>
  </g>
  <clipPath id="cp00675450">
   <polygon points="0,450 675,450 675,0 0,0"/>
  </clipPath>
  <g clip-path="url(#cp00675450)">
   <polygon fill="#ffffff" shape-rendering="crispEdges" points="87.7884,400.675 611.142,400.675 611.142,249.73 87.7884,249.73"/>
   <polyline stroke-linecap="butt" stroke="#262626" stroke-opacity="0.15" fill="none" stroke-width="0.5" points="87.7884,400.675 87.7884,249.73" stroke-linejoin="miter" stroke-dasharray="16,0"/>
   <polyline stroke-linecap="butt" stroke="#262626" stroke-opacity="0.15" fill="none" stroke-width="0.5" points="175.014,400.675 175.014,249.73" stroke-linejoin="miter" stroke-dasharray="16,0"/>
   <polyline stroke-linecap="butt" stroke="#262626" stroke-opacity="0.15" fill="none" stroke-width="0.5" points="262.24,400.675 262.24,249.73" stroke-linejoin="miter" stroke-dasharray="16,0"/>
   <polyline stroke-linecap="butt" stroke="#262626" stroke-opacity="0.15" fill="none" stroke-width="0.5" points="349.465,400.675 349.465,249.73" stroke-linejoin="miter" stroke-dasharray="16,0"/>
   <polyline stroke-linecap="butt" stroke="#262626" stroke-opacity="0.15" fill="none" stroke-width="0.5" points="436.691,400.675 436.691,249.73" stroke-linejoin="miter" stroke-dasharray="16,0"/>
   <polyline stroke-linecap="butt" stroke="#262626" stroke-opacity="0.15" fill="none" stroke-width="0.5" points="523.917,400.675 523.917,249.73" stroke-linejoin="miter" stroke-dasharray="16,0"/>
   <polyline stroke-linecap="butt" stroke="#262626" stroke-opacity="0.15" fill="none" stroke-width="0.5" points="611.142,400.675 611.142,249.73" stroke-linejoin="miter" stroke-dasharray="16,0"/>
   <polyline stroke-linecap="butt" stroke="#262626" fill="none" stroke-width="0.5" points="87.7884,400.675 87.7884,395.444" stroke-linejoin="miter"/>
   <polyline stroke-linecap="butt" stroke="#262626" fill="none" stroke-width="0.5" points="87.7884,249.73 87.7884,254.961" stroke-linejoin="miter"/>
   <polyline stroke-linecap="butt" stroke="#262626" fill="none" stroke-width="0.5" points="175.014,400.675 175.014,395.444" stroke-linejoin="miter"/>
   <polyline stroke-linecap="butt" stroke="#262626" fill="none" stroke-width="0.5" points="175.014,249.73 175.014,254.961" stroke-linejoin="miter"/>
   <polyline stroke-linecap="butt" stroke="#262626" fill="none" stroke-width="0.5" points="262.24,400.675 262.24,395.444" stroke-linejoin="miter"/>
   <polyline stroke-linecap="butt" stroke="#262626" fill="none" stroke-width="0.5" points="262.24,249.73 262.24,254.961" stroke-linejoin="miter"/>
   <polyline stroke-linecap="butt" stroke="#262626" fill="none" stroke-width="0.5" points="349.465,400.675 349.465,395.444" stroke-linejoin="miter"/>
   <polyline stroke-linecap="butt" stroke="#262626" fill="none" stroke-width="0.5" points="349.465,249.73 349.465,254.961" stroke-linejoin="miter"/>
   <polyline stroke-linecap="butt" stroke="#262626" fill="none" stroke-width="0.5" points="436.691,400.675 436.691,395.444" stroke-linejoin="miter"/>
   <polyline stroke-linecap="butt" stroke="#262626" fill="none" stroke-width="0.5" points="436.691,249.73 436.691,254.961" stroke-linejoin="miter"/>
   <polyline stroke-linecap="butt" stroke="#262626" fill="none" stroke-width="0.5" points="523.917,400.675 523.917,395.444" stroke-linejoin="miter"/>
   <polyline stroke-linecap="butt" stroke="#262626" fill="none" stroke-width="0.5" points="523.917,249.73 523.917,254.961" stroke-linejoin="miter"/>
   <polyline stroke-linecap="butt" stroke="#262626" fill="none" stroke-width="0.5" points="611.142,400.675 611.142,395.444" stroke-linejoin="miter"/>
   <polyline stroke-linecap="butt" stroke="#262626" fill="none" stroke-width="0.5" points="611.142,249.73 611.142,254.961" stroke-linejoin="miter"/>
   <g font-style="normal" font-size="16" xml:space="preserve" transform="translate(83.2884,425.671) rotate(-0,4.5,-13)" font-family="FreeSans" font-weight="bold">
    <text x="0 " fill="rgb(38,38,38)" y="-0">0</text>
   </g>
   <g font-style="normal" font-size="16" xml:space="preserve" transform="translate(170.514,425.671) rotate(-0,4.5,-13)" font-family="FreeSans" font-weight="bold">
    <text x="0 " fill="rgb(38,38,38)" y="-0">2</text>
   </g>
   <g font-style="normal" font-size="16" xml:space="preserve" transform="translate(257.74,425.671) rotate(-0,4.5,-13)" font-family="FreeSans" font-weight="bold">
    <text x="0 " fill="rgb(38,38,38)" y="-0">4</text>
   </g>
   <g font-style="normal" font-size="16" xml:space="preserve" transform="translate(344.965,425.671) rotate(-0,4.5,-13)" font-family="FreeSans" font-weight="bold">
    <text x="0 " fill="rgb(38,38,38)" y="-0">6</text>
   </g>
   <g font-style="normal" font-size="16" xml:space="preserve" transform="translate(432.191,425.671) rotate(-0,4.5,-13)" font-family="FreeSans" font-weight="bold">
    <text x="0 " fill="rgb(38,38,38)" y="-0">8</text>
   </g>
   <g font-style="normal" font-size="16" xml:space="preserve" transform="translate(514.916,425.671) rotate(-0,9,-13)" font-family="FreeSans" font-weight="bold">
    <text x="0 9 " fill="rgb(38,38,38)" y="-0">10</text>
   </g>
   <g font-style="normal" font-size="16" xml:space="preserve" transform="translate(602.142,425.671) rotate(-0,9,-13)" font-family="FreeSans" font-weight="bold">
    <text x="0 9 " fill="rgb(38,38,38)" y="-0">12</text>
   </g>
   <polyline stroke-linecap="butt" stroke="#262626" stroke-opacity="0.15" fill="none" stroke-width="0.5" points="87.7884,400.675 611.142,400.675" stroke-linejoin="miter" stroke-dasharray="16,0"/>
   <polyline stroke-linecap="butt" stroke="#262626" stroke-opacity="0.15" fill="none" stroke-width="0.5" points="87.7884,370.486 611.142,370.486" stroke-linejoin="miter" stroke-dasharray="16,0"/>
   <polyline stroke-linecap="butt" stroke="#262626" stroke-opacity="0.15" fill="none" stroke-width="0.5" points="87.7884,340.297 611.142,340.297" stroke-linejoin="miter" stroke-dasharray="16,0"/>
   <polyline stroke-linecap="butt" stroke="#262626" stroke-opacity="0.15" fill="none" stroke-width="0.5" points="87.7884,310.108 611.142,310.108" stroke-linejoin="miter" stroke-dasharray="16,0"/>
   <polyline stroke-linecap="butt" stroke="#262626" stroke-opacity="0.15" fill="none" stroke-width="0.5" points="87.7884,279.919 611.142,279.919" stroke-linejoin="miter" stroke-dasharray="16,0"/>
   <polyline stroke-linecap="butt" stroke="#262626" stroke-opacity="0.15" fill="none" stroke-width="0.5" points="87.7884,249.73 611.142,249.73" stroke-linejoin="miter" stroke-dasharray="16,0"/>
   <polyline stroke-linecap="butt" stroke="#262626" fill="none" stroke-width="0.5" points="87.7884,400.675 93.0255,400.675" stroke-linejoin="miter"/>
   <polyline stroke-linecap="butt" stroke="#262626" fill="none" stroke-width="0.5" points="611.142,400.675 605.905,400.675" stroke-linejoin="miter"/>
   <polyline stroke-linecap="butt" stroke="#262626" fill="none" stroke-width="0.5" points="87.7884,370.486 93.0255,370.486" stroke-linejoin="miter"/>
   <polyline stroke-linecap="butt" stroke="#262626" fill="none" stroke-width="0.5" points="611.142,370.486 605.905,370.486" stroke-linejoin="miter"/>
   <polyline stroke-linecap="butt" stroke="#262626" fill="none" stroke-width="0.5" points="87.7884,340.297 93.0255,340.297" stroke-linejoin="miter"/>
   <polyline stroke-linecap="butt" stroke="#262626" fill="none" stroke-width="0.5" points="611.142,340.297 605.905,340.297" stroke-linejoin="miter"/>
   <polyline stroke-linecap="butt" stroke="#262626" fill="none" stroke-width="0.5" points="87.7884,310.108 93.0255,310.108" stroke-linejoin="miter"/>
   <polyline stroke-linecap="butt" stroke="#262626" fill="none" stroke-width="0.5" points="611.142,310.108 605.905,310.108" stroke-linejoin="miter"/>
   <polyline stroke-linecap="butt" stroke="#262626" fill="none" stroke-width="0.5" points="87.7884,279.919 93.0255,279.919" stroke-linejoin="miter"/>
   <polyline stroke-linecap="butt" stroke="#262626" fill="none" stroke-width="0.5" points="611.142,279.919 605.905,279.919" stroke-linejoin="miter"/>
   <polyline stroke-linecap="butt" stroke="#262626" fill="none" stroke-width="0.5" points="87.7884,249.73 93.0255,249.73" stroke-linejoin="miter"/>
   <polyline stroke-linecap="butt" stroke="#262626" fill="none" stroke-width="0.5" points="611.142,249.73 605.905,249.73" stroke-linejoin="miter"/>
   <g font-style="normal" font-size="16" xml:space="preserve" transform="translate(61.783,407.175) rotate(-0,18,-6.5)" font-family="FreeSans" font-weight="bold">
    <text x="0 9 " fill="rgb(38,38,38)" y="-0">75</text>
   </g>
   <g font-style="normal" font-size="16" xml:space="preserve" transform="translate(61.783,376.986) rotate(-0,18,-6.5)" font-family="FreeSans" font-weight="bold">
    <text x="0 9 " fill="rgb(38,38,38)" y="-0">80</text>
   </g>
   <g font-style="normal" font-size="16" xml:space="preserve" transform="translate(61.783,346.797) rotate(-0,18,-6.5)" font-family="FreeSans" font-weight="bold">
    <text x="0 9 " fill="rgb(38,38,38)" y="-0">85</text>
   </g>
   <g font-style="normal" font-size="16" xml:space="preserve" transform="translate(61.783,316.608) rotate(-0,18,-6.5)" font-family="FreeSans" font-weight="bold">
    <text x="0 9 " fill="rgb(38,38,38)" y="-0">90</text>
   </g>
   <g font-style="normal" font-size="16" xml:space="preserve" transform="translate(61.783,286.419) rotate(-0,18,-6.5)" font-family="FreeSans" font-weight="bold">
    <text x="0 9 " fill="rgb(38,38,38)" y="-0">95</text>
   </g>
   <g font-style="normal" font-size="16" xml:space="preserve" transform="translate(52.783,256.23) rotate(-0,27,-6.5)" font-family="FreeSans" font-weight="bold">
    <text x="0 9 18 " fill="rgb(38,38,38)" y="-0">100</text>
   </g>
   <polyline stroke-linecap="square" stroke="#262626" fill="none" stroke-width="0.5" points="87.7884,400.675 611.142,400.675" stroke-linejoin="miter" stroke-dasharray="16,0"/>
   <polyline stroke-linecap="square" stroke="#262626" fill="none" stroke-width="0.5" points="87.7884,249.73 611.142,249.73" stroke-linejoin="miter" stroke-dasharray="16,0"/>
   <polyline stroke-linecap="square" stroke="#262626" fill="none" stroke-width="0.5" points="87.7884,400.675 87.7884,249.73" stroke-linejoin="miter" stroke-dasharray="16,0"/>
   <polyline stroke-linecap="square" stroke="#262626" fill="none" stroke-width="0.5" points="611.142,400.675 611.142,249.73" stroke-linejoin="miter" stroke-dasharray="16,0"/>
   <g font-style="normal" font-size="17.6" xml:space="preserve" transform="translate(-38.217,325.202) rotate(-90,86,0)" font-family="FreeSans" font-weight="bold">
    <text x="0 13 23 28 38 44 49 59 69 74 85 96 112 117 128 133 139 149 154 160 166 " fill="rgb(38,38,38)" y="-4">Relative humidity [-]</text>
   </g>
   <g font-style="normal" font-size="17.6" xml:space="preserve" transform="translate(304.465,448.671) rotate(-0,45,-18)" font-family="FreeSans" font-weight="bold">
    <text x="0 11 16 32 42 47 53 64 74 84 " fill="rgb(38,38,38)" y="-4">Time [day]</text>
   </g>
   <polyline stroke-linecap="butt" stroke="#0071bc" fill="none" stroke-width="2" points="87.7884,280.128 88.7586,300.695 89.7296,330.632 90.7006,353.536 91.6721,374.316 92.6427,373.084 93.6125,362.601 94.5811,328.427 95.5477,315.564 96.5133,309.289 97.4778,297.515 98.4416,295.996 99.4051,302.283 100.369,308.5 101.332,311.672 102.296,312.432 103.26,317.895 104.224,319.553 105.189,312.857 106.153,312.986 107.118,311.408 108.082,303.193 109.045,294.188 110.008,292.679 110.971,295.855 111.934,294.136 112.897,294.565 113.86,295.996 114.824,297.831 115.819,298.58 116.784,297.845 117.748,296.34 118.711,294.77 119.675,297.149 120.639,298.213 121.603,298.994 122.567,298.527 123.531,292.367 124.494,293.48 125.458,297.499 126.422,298.797 127.386,296.533 128.351,295.996 129.316,295.982 130.281,305.02 131.247,305.628 132.212,311.799 133.177,304.936 134.144,303.374 135.111,319.766 136.076,326.098 137.042,322.956 138.008,322.143 138.974,317.363 139.939,305.475 140.903,299.425 141.868,299.993 142.832,301.256 143.796,301.426 144.76,301.661 145.724,301.23 146.689,297.576 147.653,297.823 148.617,292.649 149.581,293.19 150.545,286.367 151.508,283.046 152.471,281.837 153.434,287.078 154.397,291.982 155.361,293.882 156.324,291.866 157.288,297.26 158.265,286.897 159.246,290.57 160.209,293.051 161.172,293.882 162.135,288.4 163.098,282.67 164.06,280.02 165.022,279.981 165.983,280.032 166.945,280.603 167.906,281.072 168.897,282.092 169.873,281.414 170.856,283.395 171.819,285.14 172.783,278.427 173.748,261.556 174.716,258.31 175.687,313.821 176.66,355.257 177.632,381.745 178.603,373.674 179.574,367.666 180.544,354.75 181.512,328.221 182.478,311.939 183.442,301.381 184.406,296.207 185.369,295.726 186.331,296.772 187.293,298.366 188.255,298.757 189.217,299.26 190.178,299.902 191.14,299.226 192.101,299.952 193.062,301.486 194.023,302.673 194.984,304.467 195.945,302.806 196.906,302.134 197.867,303.762 198.827,302.547 199.788,301.699 200.749,301.154 201.709,299.457 202.669,301.824 203.63,300.445 204.59,301.126 205.551,299.473 206.511,298.668 207.471,296.873 208.432,296.475 209.392,297.7 210.352,296.915 211.312,296.877 212.29,298.572 213.265,297.891 214.226,301.325 215.188,299.946 216.15,288.472 217.113,273.175 218.079,295.563 219.047,346.25 220.017,361.526 220.987,366.888 221.956,364.478 222.925,358.158 224.052,342.497 225.058,327.324 226.023,314.395 226.986,304.376 227.95,300.586 228.912,302.086 229.874,301.87 230.837,303.555 231.799,300.906 232.76,298.63 233.722,301.252 234.683,300.645 235.644,301.415 236.604,300.993 237.565,301.194 238.526,302.068 239.486,303.625 240.447,303.239 241.408,301.192 242.369,301.983 243.329,303.374 244.29,304.34 245.25,303.752 246.211,301.339 247.171,300.711 248.131,302.476 249.091,303.213 250.052,304.118 251.012,304.199 251.973,305.014 252.934,306.745 253.894,306.284 254.855,305.247 255.816,307.429 256.777,305.237 257.74,306.306 258.703,307.017 259.667,304.489 260.633,299.534 261.602,323.071 262.572,344.966 263.543,357.436 264.513,351.886 265.481,351.316 266.45,349.815 267.417,340.07 268.385,335.372 269.351,315.645 270.316,300.117 271.28,295.69 272.244,301.645 273.207,308.707 274.171,310.384 275.135,308.045 276.114,302.275 277.094,305.127 278.058,308.035 279.021,304.211 279.984,302.09 280.947,299.95 281.91,300.188 282.872,298.747 283.835,299.928 284.797,300.955 285.759,302.261 286.722,302.692 287.684,305.632 288.647,309.148 289.61,310.985 290.574,309.267 291.537,301.397 292.5,301.528 293.462,302.794 294.424,304.169 295.387,310.023 296.35,306.473 297.313,303.885 298.276,306.33 299.24,309.911 300.204,307.628 301.169,304.261 302.135,303.267 303.103,303.352 304.073,288.201 305.047,337.731 306.022,373.712 306.997,385.512 307.97,366.467 308.942,368.95 309.915,363.426 310.886,344.401 311.856,328.042 312.824,319.626 313.791,311.807 314.757,310.951 315.724,311.722 316.69,313.081 317.656,314.342 318.622,312.229 319.588,312.129 320.554,309.965 321.52,310.529 322.486,313.191 323.452,314.455 324.417,315.592 325.383,317.532 326.349,316.387 327.316,315.298 328.283,311.207 329.249,309.351 330.216,309.637 331.182,310.436 332.149,310.881 333.115,311.98 334.082,308.087 335.048,302.128 336.015,301.106 336.982,302.196 337.949,301.623 338.916,298.224 339.883,302.331 340.85,301.506 341.817,300.926 342.784,297.644 343.751,300.675 344.717,299.842 345.683,302.235 346.649,305.547 347.615,319.966 348.582,296.134 349.551,327.718 350.519,333.279 351.487,355.365 352.455,359.467 353.422,334.666 354.389,344.197 355.354,334.722 356.319,317.396 357.284,311.422 358.248,311.917 359.212,311.092 360.176,312.106 361.14,304.422 362.103,301.552 363.067,299.171 364.031,302.313 364.994,300.286 365.958,305.449 366.922,304.992 367.884,298.843 368.847,295.384 369.809,300.943 370.771,305.682 371.734,301.838 372.696,298.878 373.658,297.783 374.62,296.255 375.581,297.374 376.543,298.431 377.504,296.966 378.465,295.694 379.426,296.549 380.386,294.685 381.347,298.813 382.308,300.24 383.269,301.945 384.23,306.292 385.191,307.582 386.153,305.107 387.127,307.818 388.274,302.347 389.238,293.12 390.203,285.85 391.171,321.211 392.141,361.578 393.109,361.751 394.077,368.552 395.046,383.598 396.014,378.865 396.981,370.828 397.947,354.226 398.913,329.499 399.878,319.656 400.842,314.266 401.805,314.799 402.768,313.519 403.732,314.84 404.696,315.296 405.686,314.405 406.656,315.286 407.62,309.864 408.584,310.446 409.548,310.796 410.512,304.279 411.476,302.023 412.44,305.998 413.404,303.969 414.368,305.656 415.332,299.021 416.296,300.717 417.26,300.761 418.225,299.075 419.189,298.413 420.153,298.851 421.118,299.314 422.082,296.642 423.047,298.258 424.012,296.475 424.977,294.319 425.943,292.321 426.908,292.86 427.874,292.979 428.84,290.38 429.806,288.901 430.773,289.261 431.74,288.893 432.707,294.424 433.674,302.424 434.642,302.72 435.609,303.062 436.577,305.038 437.544,306.697 438.511,309.387 439.479,303.656 440.446,300.729 441.413,299.524 442.379,297.712 443.346,294.842 444.312,291.526 445.278,288.815 446.245,286.734 447.211,285.162 448.177,282.634 449.143,284.069 450.109,284.383 451.075,280.871 452.041,284.155 453.008,283.252 453.974,281.084 454.94,280.74 455.906,280.366 456.873,280.742 457.839,278.035 458.806,275.419 459.772,276.212 460.739,277.737 461.706,276.542 462.673,275.485 463.639,275.121 464.606,274.068 465.573,276.149 466.54,276.95 467.507,275.682 468.474,274.503 469.441,275.775 470.408,276.041 471.375,274.92 472.342,276.101 473.309,277.949 474.276,279.969 475.243,281.324 476.21,292.081 477.178,304.231 478.145,317.623 479.114,335.827 480.082,355.035 481.05,350.35 482.017,346.518 482.983,327.608 483.95,322.974 484.916,320.455 485.882,307.902 486.847,301.691 487.812,298.167 488.777,297.928 489.742,296.599 490.707,291.55 491.672,292.194 492.637,292.333 493.601,292.149 494.565,287.905 495.529,282.066 496.492,280.384 497.455,279.891 498.418,281.237 499.381,286.659 500.345,287.231 501.308,286.22 502.271,285.349 503.235,284.94 504.199,285.691 505.162,282.459 506.125,277.588 507.088,279.307 508.051,279.223 509.014,282.153 509.977,280.986 510.941,282.616 511.904,278.589 512.866,274.42 513.828,273.167 514.79,277.924 515.753,281.938 516.716,276.544 517.68,282.02 518.645,288.263 519.61,284.192 520.577,306.97 521.546,334.853 522.514,347.609 523.481,354.112 524.45,365.141 525.418,357.809 526.386,353.353 527.562,328.94 528.527,322.822 529.491,311.943 530.454,301.409 531.417,301.609 532.38,299.451 533.343,294.822 534.336,293.818 535.297,298.596 536.259,306.695 537.222,310.237 538.185,309.389 539.147,306.636 540.11,307.51 541.073,306.077 542.037,305.284 543,306.831 543.964,304.622 544.927,301.75 545.891,298.874 546.854,297.402 547.818,295.748 548.782,295.134 549.746,292.123 550.71,291.681 551.674,290.616 552.639,289.887 553.604,290.624 554.568,290.94 555.533,291.493 556.499,292.154 557.464,291.204 558.43,290.626 559.396,288.672 560.363,289.952 561.33,292.18 562.297,293.361 563.265,292.618 564.233,295.521 565.2,298.829 566.168,289.801 567.137,300.639 568.106,302.305 569.074,305.644 570.042,303.804 571.009,304.308 571.977,301.846 572.843,294.909" stroke-linejoin="round"/>
   <polyline stroke-linecap="butt" stroke="#d85218" fill="none" stroke-width="2" points="87.7884,255.345 88.7586,255.345 89.7296,255.345 90.7006,255.345 91.6721,255.345 92.6427,255.345 93.6125,255.345 94.5811,255.345 95.5477,255.554 96.5133,263.649 97.4778,269.037 98.4416,269.588 99.4051,268.383 100.369,266.897 101.332,266.4 102.296,264.915 103.26,261.703 104.224,260.56 105.189,258.014 106.153,258.384 107.118,260.036 108.082,265.086 109.045,267.936 110.008,268.284 110.971,267.415 111.934,266.716 112.897,264.867 113.86,260.521 114.824,256.029 115.819,255.345 116.784,255.589 117.748,256.563 118.711,256.305 119.675,256.357 120.639,255.713 121.603,255.701 122.567,257.354 123.531,260.294 124.494,258.789 125.458,255.691 126.422,255.345 127.386,255.345 128.351,255.345 129.316,255.345 130.281,255.345 131.247,255.345 132.212,255.345 133.177,255.343 134.144,255.345 135.111,255.345 136.076,255.345 137.042,255.345 138.008,255.345 138.974,255.345 139.939,255.778 140.903,256.331 141.868,256.357 142.832,256.367 143.796,256.909 144.76,256.544 145.724,256.404 146.689,255.375 147.653,255.745 148.617,255.615 149.581,256.557 150.545,261.125 151.508,263.325 152.471,264.728 153.434,260.771 154.397,257.38 155.361,258.436 156.324,258.09 157.288,258.064 158.265,261.471 159.246,259.795 160.209,259.825 161.172,260.055 162.135,262.468 163.098,265.326 164.06,267.091 165.022,268.318 165.983,269.081 166.945,269.26 167.906,269.292 168.897,267.942 169.873,265.412 170.856,263.019 171.819,258.867 172.783,255.51 173.748,255.345 174.716,255.345 175.687,255.466 176.66,257.269 177.632,260.133 178.603,261.618 179.574,261.506 180.544,261.165 181.512,260.634 182.478,265.291 183.442,272.515 184.406,275.898 185.369,277.3 186.331,277.981 187.293,278.653 188.255,279.015 189.217,279.854 190.178,280.305 191.14,281.237 192.101,281.434 193.062,281.587 194.023,280.974 194.984,281.436 195.945,281.815 196.906,281.237 197.867,280.955 198.827,281.328 199.788,281.63 200.749,282.463 201.709,282.245 202.669,281.74 203.63,281.68 204.59,280.517 205.551,280.289 206.511,280.885 207.471,281.869 208.432,281.473 209.392,282.133 210.352,282.254 211.312,281.189 212.29,279.694 213.265,278.005 214.226,275.332 215.188,271.464 216.15,268.361 217.113,262.697 218.079,263.895 219.047,265.09 220.017,264.543 220.987,266.161 221.956,264.11 222.925,263.259 224.052,264.162 225.058,263.234 226.023,269.544 226.986,273.895 227.95,276.351 228.912,277.391 229.874,277.272 230.837,278.196 231.799,279.766 232.76,281.052 233.722,281.718 234.683,282.749 235.644,283.664 236.604,284.21 237.565,284.369 238.526,283.093 239.486,282.091 240.447,281.938 241.408,282.592 242.369,282.805 243.329,282.885 244.29,282.821 245.25,283.511 246.211,284.427 247.171,284.447 248.131,285.079 249.091,282.734 250.052,281.595 251.012,281.503 251.973,281.207 252.934,280.692 253.894,280.189 254.855,279.053 255.816,277.268 256.777,274.042 257.74,268.966 258.703,265.321 259.667,261.673 260.633,257.975 261.602,255.866 262.572,255.345 263.543,255.345 264.513,255.345 265.481,255.345 266.45,255.345 267.417,255.345 268.385,255.345 269.351,260.642 270.316,268.288 271.28,270.665 272.244,269.403 273.207,267.63 274.171,267.308 275.135,269.63 276.114,270.874 277.094,269.775 278.058,269.409 279.021,270.244 279.984,271.037 280.947,272.102 281.91,273.036 282.872,273.941 283.835,274.426 284.797,274.115 285.759,273.144 286.722,272.291 287.684,271.114 288.647,269.149 289.61,267.547 290.574,269.105 291.537,271.335 292.5,271.955 293.462,272.106 294.424,270.365 295.387,268.68 296.35,270.015 297.313,269.83 298.276,266.674 299.24,262.947 300.204,260.938 301.169,257.009 302.135,255.345 303.103,255.345 304.073,255.345 305.047,255.345 306.022,255.345 306.997,255.659 307.97,255.641 308.942,255.345 309.915,258.632 310.886,262.892 311.856,264.444 312.824,270.786 313.791,275.384 314.757,274.94 315.724,275.288 316.69,275.509 317.656,276.19 318.622,276.379 319.588,275.717 320.554,275.811 321.52,276.204 322.486,275.926 323.452,276.28 324.417,274.346 325.383,270.373 326.349,268.723 327.316,270.17 328.283,268.385 329.249,266.946 330.216,268.936 331.182,269.266 332.149,266.901 333.115,262.707 334.082,262.693 335.048,261.445 336.015,259.628 336.982,258.463 337.949,258.303 338.916,257.806 339.883,257.555 340.85,258.901 341.817,256.148 342.784,255.345 343.751,255.345 344.717,255.345 345.683,255.345 346.649,255.345 347.615,255.345 348.582,255.345 349.551,256.059 350.519,260.32 351.487,267.487 352.455,277.005 353.422,276.395 354.389,275.207 355.354,285.796 356.319,288.905 357.284,288.372 358.248,286.057 359.212,282.596 360.176,282.447 361.14,284.202 362.103,282.594 363.067,281.358 364.031,279.339 364.994,279.369 365.958,277.365 366.922,281.056 367.884,285.174 368.847,285.931 369.809,284.471 370.771,283.201 371.734,285.079 372.696,286.8 373.658,288.595 374.62,289.537 375.581,289.642 376.543,290.145 377.504,291.268 378.465,291.475 379.426,291.461 380.386,290.696 381.347,289.636 382.308,289.245 383.269,286.925 384.23,285.945 385.191,283.811 386.153,280.8 387.127,279.386 388.274,275.467 389.238,270.379 390.203,264.947 391.171,266.459 392.141,271.349 393.109,266.008 394.077,267.413 395.046,272.36 396.014,270.349 396.981,279.1 397.947,286.321 398.913,286.391 399.878,290.566 400.842,291.96 401.805,291.302 402.768,289.463 403.732,285.657 404.696,282.187 405.686,278.154 406.656,277.623 407.62,276.757 408.584,274.207 409.548,274.831 410.512,276.427 411.476,273.525 412.44,271.866 413.404,270.405 414.368,270.25 415.332,272.04 416.296,268.628 417.26,269.057 418.225,267.256 419.189,265.517 420.153,263.719 421.118,262.049 422.082,261.673 423.047,260.668 424.012,259.614 424.977,258.35 425.943,256.593 426.908,255.697 427.874,255.355 428.84,255.345 429.806,255.345 430.773,255.345 431.74,255.345 432.707,255.345 433.674,255.345 434.642,255.345 435.609,255.345 436.577,255.345 437.544,255.345 438.511,255.345 439.479,255.345 440.446,255.345 441.413,255.345 442.379,255.345 443.346,255.345 444.312,255.345 445.278,255.345 446.245,255.345 447.211,255.345 448.177,255.345 449.143,255.345 450.109,255.345 451.075,255.345 452.041,255.345 453.008,255.345 453.974,255.345 454.94,255.345 455.906,255.345 456.873,255.345 457.839,255.345 458.806,255.345 459.772,255.345 460.739,255.345 461.706,255.345 462.673,255.345 463.639,255.345 464.606,255.345 465.573,255.345 466.54,255.345 467.507,255.345 468.474,255.345 469.441,255.345 470.408,255.345 471.375,255.345 472.342,255.345 473.309,255.345 474.276,255.345 475.243,255.345 476.21,255.345 477.178,255.345 478.145,255.345 479.114,255.345 480.082,260.419 481.05,266.108 482.017,264.015 482.983,264.365 483.95,259.197 484.916,262.107 485.882,262.292 486.847,258.927 487.812,257.621 488.777,255.623 489.742,255.468 490.707,255.436 491.672,255.345 492.637,255.345 493.601,255.355 494.565,257.728 495.529,260.435 496.492,260.067 497.455,261.025 498.418,259.751 499.381,257.335 500.345,257.945 501.308,255.488 502.271,255.401 503.235,255.345 504.199,255.367 505.162,256.591 506.125,257.102 507.088,257.434 508.051,256.746 509.014,255.939 509.977,255.355 510.941,255.647 511.904,259.048 512.866,261.614 513.828,260.87 514.79,258.108 515.753,255.373 516.716,255.345 517.68,255.345 518.645,255.345 519.61,255.345 520.577,255.345 521.546,255.345 522.514,255.345 523.481,255.345 524.45,255.613 525.418,256.208 526.386,268.059 527.562,277.731 528.527,275.089 529.491,277.631 530.454,279.345 531.417,279.257 532.38,278.665 533.343,278.657 534.336,278.852 535.297,276.826 536.259,274.155 537.222,271.152 538.185,270.943 539.147,269.282 540.11,265.559 541.073,263.971 542.037,262.81 543,261.733 543.964,260.531 544.927,259.394 545.891,257.333 546.854,255.786 547.818,255.345 548.782,255.345 549.746,255.345 550.71,255.345 551.674,255.345 552.639,255.345 553.604,255.345 554.568,255.345 555.533,255.345 556.499,255.345 557.464,255.345 558.43,255.345 559.396,255.345 560.363,255.345 561.33,255.345 562.297,255.345 563.265,255.345 564.233,255.345 565.2,255.345 566.168,255.345 567.137,255.345 568.106,255.345 569.074,255.345 570.042,255.345 571.009,255.345 571.977,255.345 572.843,255.345" stroke-linejoin="round"/>
  </g>
  <clipPath id="cp00675450">
   <polygon points="0,450 675,450 675,0 0,0"/>
  </clipPath>
  <g clip-path="url(#cp00675450)">
   <polygon fill="#ffffff" shape-rendering="crispEdges" points="143.488,83.756 555.443,83.756 555.443,45.7613 143.488,45.7613"/>
   <polyline stroke-linecap="square" stroke="#262626" fill="none" stroke-width="0.5" points="143.488,83.756 555.443,83.756" stroke-linejoin="miter" stroke-dasharray="16,0"/>
   <polyline stroke-linecap="square" stroke="#262626" fill="none" stroke-width="0.5" points="143.488,45.7613 555.443,45.7613" stroke-linejoin="miter" stroke-dasharray="16,0"/>
   <polyline stroke-linecap="square" stroke="#262626" fill="none" stroke-width="0.5" points="143.488,83.756 143.488,45.7613" stroke-linejoin="miter" stroke-dasharray="16,0"/>
   <polyline stroke-linecap="square" stroke="#262626" fill="none" stroke-width="0.5" points="555.443,83.756 555.443,45.7613" stroke-linejoin="miter" stroke-dasharray="16,0"/>
   <polyline stroke-linecap="butt" stroke="#0071bc" fill="none" stroke-width="2" points="147.486,56.2595 167.477,56.2595" stroke-linejoin="round"/>
   <g font-style="normal" font-size="12" xml:space="preserve" transform="translate(171.476,62.7595) rotate(-0,-0,-6.5)" font-family="FreeSans" font-weight="normal">
    <text x="0 9 15 18 21 25 31 37 40 43 46 53 59 66 " fill="rgb(0,0,0)" y="-3">Ref.roof [deg]</text>
   </g>
   <polyline stroke-linecap="butt" stroke="#d85218" fill="none" stroke-width="2" points="147.486,73.2578 167.477,73.2578" stroke-linejoin="round"/>
   <g font-style="normal" font-size="12" xml:space="preserve" transform="translate(171.476,79.7578) rotate(-0,-0,-6.5)" font-family="FreeSans" font-weight="normal">
    <text x="0 9 15 18 21 27 33 39 43 46 50 57 67 73 76 79 86 92 99 " fill="rgb(0,0,0)" y="-3">Ref.overframe [deg]</text>
   </g>
   <polyline stroke-linecap="butt" stroke="#ecb01f" fill="none" stroke-width="2" points="285.47,56.2595 305.462,56.2595" stroke-linejoin="round"/>
   <g font-style="normal" font-size="12" xml:space="preserve" transform="translate(309.46,62.7595) rotate(-0,-0,-6.5)" font-family="FreeSans" font-weight="normal">
    <text x="0 9 15 18 21 28 34 41 47 50 53 59 66 69 77 80 83 90 96 103 " fill="rgb(0,0,0)" y="-3">Ref.body.top.T [deg]</text>
   </g>
   <polyline stroke-linecap="butt" stroke="#7d2e8d" fill="none" stroke-width="2" points="285.47,73.2578 305.462,73.2578" stroke-linejoin="round"/>
   <g font-style="normal" font-size="12" xml:space="preserve" transform="translate(309.46,79.7578) rotate(-0,-0,-6.5)" font-family="FreeSans" font-weight="normal">
    <text x="0 9 15 18 21 28 34 41 47 50 57 63 66 69 75 85 88 96 99 102 109 115 122 " fill="rgb(0,0,0)" y="-3">Ref.body.bottom.T [deg]</text>
   </g>
   <polyline stroke-linecap="butt" stroke="#76ab2f" fill="none" stroke-width="2" points="446.455,56.2595 466.446,56.2595" stroke-linejoin="round"/>
   <g font-style="normal" font-size="12" xml:space="preserve" transform="translate(470.444,62.7595) rotate(-0,-0,-6.5)" font-family="FreeSans" font-weight="normal">
    <text x="0 9 15 18 21 28 34 37 43 52 55 58 65 71 78 " fill="rgb(0,0,0)" y="-3">Ref.below [deg]</text>
   </g>
  </g>
  <clipPath id="cp00675450">
   <polygon points="0,450 675,450 675,0 0,0"/>
  </clipPath>
  <g clip-path="url(#cp00675450)">
   <polygon fill="#ffffff" shape-rendering="crispEdges" points="445.16,392.679 603.146,392.679 603.146,354.684 445.16,354.684"/>
   <polyline stroke-linecap="square" stroke="#262626" fill="none" stroke-width="0.5" points="445.16,392.679 603.146,392.679" stroke-linejoin="miter" stroke-dasharray="16,0"/>
   <polyline stroke-linecap="square" stroke="#262626" fill="none" stroke-width="0.5" points="445.16,354.684 603.146,354.684" stroke-linejoin="miter" stroke-dasharray="16,0"/>
   <polyline stroke-linecap="square" stroke="#262626" fill="none" stroke-width="0.5" points="445.16,392.679 445.16,354.684" stroke-linejoin="miter" stroke-dasharray="16,0"/>
   <polyline stroke-linecap="square" stroke="#262626" fill="none" stroke-width="0.5" points="603.146,392.679 603.146,354.684" stroke-linejoin="miter" stroke-dasharray="16,0"/>
   <polyline stroke-linecap="butt" stroke="#0071bc" fill="none" stroke-width="2" points="449.158,365.182 469.149,365.182" stroke-linejoin="round"/>
   <g font-style="normal" font-size="12" xml:space="preserve" transform="translate(473.147,371.682) rotate(-0,-0,-6.5)" font-family="FreeSans" font-weight="normal">
    <text x="0 9 15 18 21 28 34 41 47 50 53 59 66 69 78 87 90 93 104 " fill="rgb(0,0,0)" y="-3">Ref.body.top.HR [%]</text>
   </g>
   <polyline stroke-linecap="butt" stroke="#d85218" fill="none" stroke-width="2" points="449.158,382.18 469.149,382.18" stroke-linejoin="round"/>
   <g font-style="normal" font-size="12" xml:space="preserve" transform="translate(473.147,388.68) rotate(-0,-0,-6.5)" font-family="FreeSans" font-weight="normal">
    <text x="0 9 15 18 21 28 34 41 47 50 57 63 66 69 75 85 88 97 106 109 112 123 " fill="rgb(0,0,0)" y="-3">Ref.body.bottom.HR [%]</text>
   </g>
  </g>
 </g>
</svg>
